<mxfile host="app.diagrams.net" modified="2024-02-04T09:39:38.134Z" agent="Mozilla/5.0 (Macintosh; Intel Mac OS X 10_15_7) AppleWebKit/537.36 (KHTML, like Gecko) Chrome/121.0.0.0 Safari/537.36" etag="nHWq6Yrq5QP-77uDwCoV" version="23.1.1" type="github">
  <diagram name="第 1 页" id="r4QGvEdZ8OP9rZN4HBqC">
    <mxGraphModel dx="1193" dy="621" grid="1" gridSize="10" guides="1" tooltips="1" connect="1" arrows="1" fold="1" page="1" pageScale="1" pageWidth="827" pageHeight="1169" math="0" shadow="0">
      <root>
        <mxCell id="0" />
        <mxCell id="1" parent="0" />
        <mxCell id="dN2VKomqZgmlp4BIyJyj-12" value="" style="edgeStyle=orthogonalEdgeStyle;rounded=0;orthogonalLoop=1;jettySize=auto;html=1;entryX=0;entryY=0.5;entryDx=0;entryDy=0;" edge="1" parent="1" source="dN2VKomqZgmlp4BIyJyj-1" target="dN2VKomqZgmlp4BIyJyj-6">
          <mxGeometry relative="1" as="geometry" />
        </mxCell>
        <mxCell id="dN2VKomqZgmlp4BIyJyj-13" style="edgeStyle=orthogonalEdgeStyle;rounded=0;orthogonalLoop=1;jettySize=auto;html=1;entryX=0;entryY=0.5;entryDx=0;entryDy=0;" edge="1" parent="1" source="dN2VKomqZgmlp4BIyJyj-1" target="dN2VKomqZgmlp4BIyJyj-4">
          <mxGeometry relative="1" as="geometry" />
        </mxCell>
        <mxCell id="dN2VKomqZgmlp4BIyJyj-1" value="开始" style="rounded=1;whiteSpace=wrap;html=1;fillColor=#008a00;fontColor=#ffffff;strokeColor=#005700;" vertex="1" parent="1">
          <mxGeometry x="50" y="140" width="90" height="40" as="geometry" />
        </mxCell>
        <mxCell id="dN2VKomqZgmlp4BIyJyj-27" value="" style="edgeStyle=orthogonalEdgeStyle;rounded=0;orthogonalLoop=1;jettySize=auto;html=1;" edge="1" parent="1" source="dN2VKomqZgmlp4BIyJyj-4" target="dN2VKomqZgmlp4BIyJyj-26">
          <mxGeometry relative="1" as="geometry" />
        </mxCell>
        <mxCell id="dN2VKomqZgmlp4BIyJyj-4" value="发起广告请求" style="whiteSpace=wrap;html=1;fillColor=#f0a30a;fontColor=#000000;strokeColor=#BD7000;" vertex="1" parent="1">
          <mxGeometry x="190" y="60" width="100" height="50" as="geometry" />
        </mxCell>
        <mxCell id="dN2VKomqZgmlp4BIyJyj-8" value="" style="edgeStyle=orthogonalEdgeStyle;rounded=0;orthogonalLoop=1;jettySize=auto;html=1;" edge="1" parent="1" source="dN2VKomqZgmlp4BIyJyj-6" target="dN2VKomqZgmlp4BIyJyj-7">
          <mxGeometry relative="1" as="geometry" />
        </mxCell>
        <mxCell id="dN2VKomqZgmlp4BIyJyj-6" value="发起内容化请求" style="whiteSpace=wrap;html=1;fillColor=#f0a30a;fontColor=#000000;strokeColor=#BD7000;" vertex="1" parent="1">
          <mxGeometry x="190" y="190" width="100" height="50" as="geometry" />
        </mxCell>
        <mxCell id="dN2VKomqZgmlp4BIyJyj-15" value="" style="edgeStyle=orthogonalEdgeStyle;rounded=0;orthogonalLoop=1;jettySize=auto;html=1;" edge="1" parent="1" source="dN2VKomqZgmlp4BIyJyj-7" target="dN2VKomqZgmlp4BIyJyj-14">
          <mxGeometry relative="1" as="geometry" />
        </mxCell>
        <mxCell id="dN2VKomqZgmlp4BIyJyj-16" value="是" style="edgeLabel;html=1;align=center;verticalAlign=middle;resizable=0;points=[];" vertex="1" connectable="0" parent="dN2VKomqZgmlp4BIyJyj-15">
          <mxGeometry x="-0.3111" relative="1" as="geometry">
            <mxPoint as="offset" />
          </mxGeometry>
        </mxCell>
        <mxCell id="dN2VKomqZgmlp4BIyJyj-7" value="是否成功返回数据" style="rhombus;whiteSpace=wrap;html=1;rounded=0;fillColor=#d80073;fontColor=#ffffff;strokeColor=#A50040;" vertex="1" parent="1">
          <mxGeometry x="200" y="300" width="80" height="80" as="geometry" />
        </mxCell>
        <mxCell id="dN2VKomqZgmlp4BIyJyj-21" value="" style="edgeStyle=orthogonalEdgeStyle;rounded=0;orthogonalLoop=1;jettySize=auto;html=1;" edge="1" parent="1" source="dN2VKomqZgmlp4BIyJyj-10" target="dN2VKomqZgmlp4BIyJyj-20">
          <mxGeometry relative="1" as="geometry" />
        </mxCell>
        <mxCell id="dN2VKomqZgmlp4BIyJyj-22" value="是" style="edgeLabel;html=1;align=center;verticalAlign=middle;resizable=0;points=[];" vertex="1" connectable="0" parent="dN2VKomqZgmlp4BIyJyj-21">
          <mxGeometry x="-0.2156" y="1" relative="1" as="geometry">
            <mxPoint as="offset" />
          </mxGeometry>
        </mxCell>
        <mxCell id="dN2VKomqZgmlp4BIyJyj-10" value="所有位置竞价是否完成" style="rhombus;whiteSpace=wrap;html=1;rounded=0;fillColor=#d80073;fontColor=#ffffff;strokeColor=#A50040;" vertex="1" parent="1">
          <mxGeometry x="830" y="45" width="80" height="80" as="geometry" />
        </mxCell>
        <mxCell id="dN2VKomqZgmlp4BIyJyj-18" value="" style="edgeStyle=orthogonalEdgeStyle;rounded=0;orthogonalLoop=1;jettySize=auto;html=1;" edge="1" parent="1" source="dN2VKomqZgmlp4BIyJyj-14" target="dN2VKomqZgmlp4BIyJyj-17">
          <mxGeometry relative="1" as="geometry" />
        </mxCell>
        <mxCell id="dN2VKomqZgmlp4BIyJyj-19" value="是" style="edgeLabel;html=1;align=center;verticalAlign=middle;resizable=0;points=[];" vertex="1" connectable="0" parent="dN2VKomqZgmlp4BIyJyj-18">
          <mxGeometry y="-1" relative="1" as="geometry">
            <mxPoint as="offset" />
          </mxGeometry>
        </mxCell>
        <mxCell id="dN2VKomqZgmlp4BIyJyj-14" value="是否有广告数据了" style="rhombus;whiteSpace=wrap;html=1;rounded=0;fillColor=#d80073;fontColor=#ffffff;strokeColor=#A50040;" vertex="1" parent="1">
          <mxGeometry x="350" y="300" width="80" height="80" as="geometry" />
        </mxCell>
        <mxCell id="dN2VKomqZgmlp4BIyJyj-39" value="" style="edgeStyle=orthogonalEdgeStyle;rounded=0;orthogonalLoop=1;jettySize=auto;html=1;" edge="1" parent="1" source="dN2VKomqZgmlp4BIyJyj-17" target="dN2VKomqZgmlp4BIyJyj-38">
          <mxGeometry relative="1" as="geometry" />
        </mxCell>
        <mxCell id="dN2VKomqZgmlp4BIyJyj-17" value="合并数据" style="whiteSpace=wrap;html=1;fillColor=#f0a30a;fontColor=#000000;strokeColor=#BD7000;" vertex="1" parent="1">
          <mxGeometry x="340" y="195" width="100" height="45" as="geometry" />
        </mxCell>
        <mxCell id="dN2VKomqZgmlp4BIyJyj-34" value="" style="edgeStyle=orthogonalEdgeStyle;rounded=0;orthogonalLoop=1;jettySize=auto;html=1;" edge="1" parent="1" source="dN2VKomqZgmlp4BIyJyj-20" target="dN2VKomqZgmlp4BIyJyj-23">
          <mxGeometry relative="1" as="geometry" />
        </mxCell>
        <mxCell id="dN2VKomqZgmlp4BIyJyj-35" value="否" style="edgeLabel;html=1;align=center;verticalAlign=middle;resizable=0;points=[];" vertex="1" connectable="0" parent="dN2VKomqZgmlp4BIyJyj-34">
          <mxGeometry x="-0.2125" y="1" relative="1" as="geometry">
            <mxPoint as="offset" />
          </mxGeometry>
        </mxCell>
        <mxCell id="dN2VKomqZgmlp4BIyJyj-20" value="是否已经合并进主版数据" style="rhombus;whiteSpace=wrap;html=1;rounded=0;fillColor=#d80073;fontColor=#ffffff;strokeColor=#A50040;" vertex="1" parent="1">
          <mxGeometry x="830" y="176" width="80" height="80" as="geometry" />
        </mxCell>
        <mxCell id="dN2VKomqZgmlp4BIyJyj-40" value="" style="edgeStyle=orthogonalEdgeStyle;rounded=0;orthogonalLoop=1;jettySize=auto;html=1;" edge="1" parent="1" source="dN2VKomqZgmlp4BIyJyj-23" target="dN2VKomqZgmlp4BIyJyj-38">
          <mxGeometry relative="1" as="geometry" />
        </mxCell>
        <mxCell id="dN2VKomqZgmlp4BIyJyj-23" value="异步插入数据" style="whiteSpace=wrap;html=1;fillColor=#f0a30a;fontColor=#000000;strokeColor=#BD7000;" vertex="1" parent="1">
          <mxGeometry x="680" y="193.5" width="90" height="45" as="geometry" />
        </mxCell>
        <mxCell id="dN2VKomqZgmlp4BIyJyj-29" value="" style="edgeStyle=orthogonalEdgeStyle;rounded=0;orthogonalLoop=1;jettySize=auto;html=1;" edge="1" parent="1" source="dN2VKomqZgmlp4BIyJyj-26" target="dN2VKomqZgmlp4BIyJyj-28">
          <mxGeometry relative="1" as="geometry" />
        </mxCell>
        <mxCell id="dN2VKomqZgmlp4BIyJyj-30" value="是" style="edgeLabel;html=1;align=center;verticalAlign=middle;resizable=0;points=[];" vertex="1" connectable="0" parent="dN2VKomqZgmlp4BIyJyj-29">
          <mxGeometry x="-0.1127" relative="1" as="geometry">
            <mxPoint as="offset" />
          </mxGeometry>
        </mxCell>
        <mxCell id="dN2VKomqZgmlp4BIyJyj-26" value="是否为SDK投放" style="rhombus;whiteSpace=wrap;html=1;rounded=0;fillColor=#d80073;fontColor=#ffffff;strokeColor=#A50040;" vertex="1" parent="1">
          <mxGeometry x="350" y="45" width="80" height="80" as="geometry" />
        </mxCell>
        <mxCell id="dN2VKomqZgmlp4BIyJyj-32" value="" style="edgeStyle=orthogonalEdgeStyle;rounded=0;orthogonalLoop=1;jettySize=auto;html=1;" edge="1" parent="1" source="dN2VKomqZgmlp4BIyJyj-28" target="dN2VKomqZgmlp4BIyJyj-31">
          <mxGeometry relative="1" as="geometry" />
        </mxCell>
        <mxCell id="dN2VKomqZgmlp4BIyJyj-28" value="本地过滤不符合的素材" style="whiteSpace=wrap;html=1;fillColor=#f0a30a;fontColor=#000000;strokeColor=#BD7000;" vertex="1" parent="1">
          <mxGeometry x="490" y="58" width="100" height="54" as="geometry" />
        </mxCell>
        <mxCell id="dN2VKomqZgmlp4BIyJyj-33" value="" style="edgeStyle=orthogonalEdgeStyle;rounded=0;orthogonalLoop=1;jettySize=auto;html=1;" edge="1" parent="1" source="dN2VKomqZgmlp4BIyJyj-31" target="dN2VKomqZgmlp4BIyJyj-10">
          <mxGeometry relative="1" as="geometry" />
        </mxCell>
        <mxCell id="dN2VKomqZgmlp4BIyJyj-31" value="bidding竞价" style="whiteSpace=wrap;html=1;fillColor=#f0a30a;fontColor=#000000;strokeColor=#BD7000;" vertex="1" parent="1">
          <mxGeometry x="660" y="56" width="110" height="58" as="geometry" />
        </mxCell>
        <mxCell id="dN2VKomqZgmlp4BIyJyj-36" style="edgeStyle=orthogonalEdgeStyle;rounded=0;orthogonalLoop=1;jettySize=auto;html=1;entryX=0.603;entryY=0.009;entryDx=0;entryDy=0;entryPerimeter=0;exitX=0.5;exitY=0;exitDx=0;exitDy=0;" edge="1" parent="1" source="dN2VKomqZgmlp4BIyJyj-26" target="dN2VKomqZgmlp4BIyJyj-31">
          <mxGeometry relative="1" as="geometry" />
        </mxCell>
        <mxCell id="dN2VKomqZgmlp4BIyJyj-37" value="否" style="edgeLabel;html=1;align=center;verticalAlign=middle;resizable=0;points=[];" vertex="1" connectable="0" parent="dN2VKomqZgmlp4BIyJyj-36">
          <mxGeometry x="-0.2128" y="1" relative="1" as="geometry">
            <mxPoint as="offset" />
          </mxGeometry>
        </mxCell>
        <mxCell id="dN2VKomqZgmlp4BIyJyj-42" value="" style="edgeStyle=orthogonalEdgeStyle;rounded=0;orthogonalLoop=1;jettySize=auto;html=1;" edge="1" parent="1" source="dN2VKomqZgmlp4BIyJyj-38" target="dN2VKomqZgmlp4BIyJyj-41">
          <mxGeometry relative="1" as="geometry" />
        </mxCell>
        <mxCell id="dN2VKomqZgmlp4BIyJyj-38" value="视图渲染(展示默认图)" style="whiteSpace=wrap;html=1;fillColor=#f0a30a;fontColor=#000000;strokeColor=#BD7000;" vertex="1" parent="1">
          <mxGeometry x="520" y="193" width="100" height="47" as="geometry" />
        </mxCell>
        <mxCell id="dN2VKomqZgmlp4BIyJyj-44" value="" style="edgeStyle=orthogonalEdgeStyle;rounded=0;orthogonalLoop=1;jettySize=auto;html=1;" edge="1" parent="1" source="dN2VKomqZgmlp4BIyJyj-41" target="dN2VKomqZgmlp4BIyJyj-43">
          <mxGeometry relative="1" as="geometry" />
        </mxCell>
        <mxCell id="dN2VKomqZgmlp4BIyJyj-45" value="是" style="edgeLabel;html=1;align=center;verticalAlign=middle;resizable=0;points=[];" vertex="1" connectable="0" parent="dN2VKomqZgmlp4BIyJyj-44">
          <mxGeometry x="0.0344" y="-4" relative="1" as="geometry">
            <mxPoint as="offset" />
          </mxGeometry>
        </mxCell>
        <mxCell id="dN2VKomqZgmlp4BIyJyj-41" value="图片是否加载成功" style="rhombus;whiteSpace=wrap;html=1;rounded=0;fillColor=#d80073;fontColor=#ffffff;strokeColor=#A50040;" vertex="1" parent="1">
          <mxGeometry x="530" y="300" width="80" height="80" as="geometry" />
        </mxCell>
        <mxCell id="dN2VKomqZgmlp4BIyJyj-47" value="" style="edgeStyle=orthogonalEdgeStyle;rounded=0;orthogonalLoop=1;jettySize=auto;html=1;" edge="1" parent="1" source="dN2VKomqZgmlp4BIyJyj-43" target="dN2VKomqZgmlp4BIyJyj-46">
          <mxGeometry relative="1" as="geometry" />
        </mxCell>
        <mxCell id="dN2VKomqZgmlp4BIyJyj-43" value="根据图片的实际宽高计算展示宽度" style="whiteSpace=wrap;html=1;fillColor=#f0a30a;fontColor=#000000;strokeColor=#BD7000;" vertex="1" parent="1">
          <mxGeometry x="680" y="310" width="120" height="60" as="geometry" />
        </mxCell>
        <mxCell id="dN2VKomqZgmlp4BIyJyj-46" value="结束" style="rounded=1;whiteSpace=wrap;html=1;fillColor=#fa6800;fontColor=#000000;strokeColor=#C73500;" vertex="1" parent="1">
          <mxGeometry x="880" y="322.5" width="80" height="35" as="geometry" />
        </mxCell>
      </root>
    </mxGraphModel>
  </diagram>
</mxfile>
